<svg id="Layer_1" data-name="Layer 1" xmlns="http://www.w3.org/2000/svg" viewBox="0 0 45 43.46"><defs><style>.cls-1{fill:#fff;}</style></defs><title>logo</title><path class="cls-1" d="M67.87,52.69s9.35,3,10.39,8c0,0,5.12-6.74-13.32-18.33C64.94,42.38,68.52,49.66,67.87,52.69Z" transform="translate(-40.43 -42.38)"/><path class="cls-1" d="M57.87,57.39l5.33,2a32.11,32.11,0,0,0-1.86-6.12l-6.12-4.07S58.36,54.16,57.87,57.39Z" transform="translate(-40.43 -42.38)"/><path class="cls-1" d="M48.69,62.31l4.81,1.2a38,38,0,0,0-1.62-5.19l-5.75-3.16S49.18,59.07,48.69,62.31Z" transform="translate(-40.43 -42.38)"/><path class="cls-1" d="M83.17,79.89s3.1-4.06,2-8.45c-1.41-5.84-22.86-20.9-22.86-20.9a26.53,26.53,0,0,1,.31,25.86A33.23,33.23,0,0,0,63.77,64c0-.34-.06-.69-.1-1L53.38,56.15A26.57,26.57,0,0,1,53.1,78.3a33.37,33.37,0,0,0,.8-11.23c0-.15,0-.3,0-.46l-9.63-5.1a21.63,21.63,0,0,1,2,7.37,22.09,22.09,0,0,1-5.83,17C81.52,68.41,83.17,79.89,83.17,79.89Z" transform="translate(-40.43 -42.38)"/></svg>